<svg width="173" height="47" viewBox="0 0 173 47" fill="none" xmlns="http://www.w3.org/2000/svg">
<path fill-rule="evenodd" clip-rule="evenodd" d="M39.3208 23.5002C39.3208 30.7685 33.4286 36.6606 26.1604 36.6606C18.8921 36.6606 13 30.7685 13 23.5002C13 16.232 18.8921 10.3398 26.1604 10.3398C33.4286 10.3398 39.3208 16.232 39.3208 23.5002Z" fill="#FF6154"/>
<path fill-rule="evenodd" clip-rule="evenodd" d="M27.8055 23.8878L24.1206 23.8879V19.9398H27.8055C28.8829 19.9398 29.7564 20.8235 29.7564 21.9137C29.7564 23.004 28.8829 23.8878 27.8055 23.8878ZM27.8055 17.3076H21.5195L21.5195 30.468H24.1206L24.1206 26.52H27.8055C30.3195 26.52 32.3575 24.4577 32.3575 21.9137C32.3575 19.3698 30.3195 17.3076 27.8055 17.3076Z" fill="white"/>
<path d="M48.4779 15.0903H47.7557L47.915 14.4956H48.6372L49.0231 13.069H49.7275L49.3417 14.4956H49.9293L50.3046 13.069H51.009L50.6338 14.4956H51.3453L51.186 15.0903H50.4745L50.1877 16.124H50.9099L50.7506 16.7188H50.0284L49.6497 18.1348H48.9452L49.324 16.7188H48.7434L48.3575 18.1348H47.6531L48.0389 16.7188H47.3203L47.4796 16.124H48.1982L48.4779 15.0903ZM49.4833 16.124L49.77 15.0903H49.1824L48.9062 16.124H49.4833ZM53.8765 14.046C53.7561 13.9021 53.5838 13.8301 53.3596 13.8301C53.0528 13.8301 52.844 13.9445 52.733 14.1735C52.6693 14.3056 52.6316 14.5157 52.6198 14.8036H51.6392C51.6557 14.367 51.7347 14.0142 51.8763 13.7451C52.1454 13.233 52.6233 12.9769 53.3101 12.9769C53.8529 12.9769 54.2847 13.128 54.6057 13.4301C54.9267 13.7298 55.0872 14.1274 55.0872 14.623C55.0872 15.003 54.9739 15.3405 54.7473 15.6355C54.5986 15.8314 54.3544 16.0497 54.0145 16.2904L53.611 16.5771C53.3584 16.7565 53.185 16.8863 53.0906 16.9666C52.9985 17.0468 52.9207 17.14 52.8569 17.2462H55.0978V18.1348H51.5825C51.592 17.7666 51.671 17.4303 51.8197 17.1259C51.9637 16.7837 52.3035 16.4214 52.8392 16.0391C53.3042 15.7063 53.6051 15.4679 53.7419 15.324C53.952 15.0998 54.057 14.8543 54.057 14.5876C54.057 14.3705 53.9968 14.19 53.8765 14.046ZM60.1777 16.2585H59.0697V18.1348H57.9865V12.9167H60.2592C60.7831 12.9167 61.2008 13.0513 61.5123 13.3203C61.8239 13.5894 61.9796 14.0059 61.9796 14.5699C61.9796 15.1859 61.8239 15.6213 61.5123 15.8762C61.2008 16.1311 60.7559 16.2585 60.1777 16.2585ZM60.6875 15.1718C60.8291 15.0467 60.8999 14.8484 60.8999 14.577C60.8999 14.3056 60.8279 14.1121 60.684 13.9965C60.5424 13.8808 60.3429 13.823 60.0857 13.823H59.0697V15.3594H60.0857C60.3429 15.3594 60.5435 15.2968 60.6875 15.1718ZM65.0134 16.0886H63.8877V18.1348H62.8221V12.9167L65.3816 12.9167C65.7474 12.9238 66.0282 12.9687 66.2241 13.0513C66.4224 13.1339 66.5899 13.2554 66.7268 13.4159C66.8401 13.5481 66.9298 13.6944 66.9958 13.8549C67.0619 14.0153 67.095 14.1982 67.095 14.4036C67.095 14.6514 67.0324 14.8956 66.9073 15.1364C66.7823 15.3747 66.5758 15.5435 66.2878 15.6426C66.5286 15.7393 66.6985 15.8774 66.7976 16.0568C66.8991 16.2338 66.9498 16.5052 66.9498 16.871V17.2214C66.9498 17.4598 66.9593 17.6215 66.9781 17.7064C67.0065 17.8409 67.0726 17.9401 67.1764 18.0038V18.1348H65.9763C65.9433 18.0191 65.9197 17.9259 65.9055 17.8551C65.8772 17.7088 65.8619 17.5589 65.8595 17.4055L65.8524 16.9205C65.8477 16.5878 65.7863 16.3659 65.6683 16.255C65.5527 16.1441 65.3344 16.0886 65.0134 16.0886ZM65.6754 15.1399C65.8925 15.0408 66.0011 14.8449 66.0011 14.5522C66.0011 14.236 65.8961 14.0236 65.686 13.915C65.568 13.8537 65.391 13.823 65.155 13.823H63.8877V15.2249H65.1232C65.3686 15.2249 65.5527 15.1965 65.6754 15.1399ZM70.3447 18.2799C69.599 18.2799 69.029 18.0769 68.6349 17.671C68.1062 17.1731 67.8419 16.4556 67.8419 15.5187C67.8419 14.5629 68.1062 13.8454 68.6349 13.3663C69.029 12.9604 69.599 12.7574 70.3447 12.7574C71.0905 12.7574 71.6604 12.9604 72.0546 13.3663C72.5809 13.8454 72.844 14.5629 72.844 15.5187C72.844 16.4556 72.5809 17.1731 72.0546 17.671C71.6604 18.0769 71.0905 18.2799 70.3447 18.2799ZM71.3749 16.8781C71.6274 16.5594 71.7537 16.1063 71.7537 15.5187C71.7537 14.9334 71.6262 14.4814 71.3713 14.1628C71.1188 13.8419 70.7766 13.6814 70.3447 13.6814C69.9128 13.6814 69.5683 13.8407 69.311 14.1593C69.0538 14.4779 68.9252 14.931 68.9252 15.5187C68.9252 16.1063 69.0538 16.5594 69.311 16.8781C69.5683 17.1967 69.9128 17.356 70.3447 17.356C70.7766 17.356 71.12 17.1967 71.3749 16.8781ZM75.9274 18.1348H73.6794V12.9167H75.9274C76.2507 12.9215 76.5197 12.9592 76.7345 13.03C77.1003 13.1504 77.3965 13.3711 77.623 13.692C77.8048 13.9516 77.9287 14.2325 77.9948 14.5345C78.0608 14.8366 78.0939 15.1246 78.0939 15.3983C78.0939 16.0922 77.9546 16.6798 77.6761 17.1613C77.2985 17.8103 76.7156 18.1348 75.9274 18.1348ZM76.738 14.2478C76.5705 13.9646 76.2389 13.823 75.7433 13.823H74.7379V17.2285H75.7433C76.2578 17.2285 76.6165 16.9748 76.8195 16.4674C76.9304 16.1889 76.9858 15.8573 76.9858 15.4727C76.9858 14.9417 76.9032 14.5334 76.738 14.2478ZM82.0056 16.124V12.9167H83.1136V16.124C83.1136 16.6786 83.0275 17.1105 82.8552 17.4197C82.5343 17.9861 81.9218 18.2693 81.0179 18.2693C80.1141 18.2693 79.5004 17.9861 79.1771 17.4197C79.0048 17.1105 78.9187 16.6786 78.9187 16.124V12.9167H80.0267V16.124C80.0267 16.4827 80.0692 16.7447 80.1542 16.9099C80.2863 17.2026 80.5743 17.3489 81.0179 17.3489C81.4593 17.3489 81.746 17.2026 81.8782 16.9099C81.9631 16.7447 82.0056 16.4827 82.0056 16.124ZM87.8396 17.7454C87.4502 18.1017 86.9522 18.2799 86.3457 18.2799C85.5952 18.2799 85.0052 18.0392 84.5757 17.5577C84.1462 17.0739 83.9314 16.4108 83.9314 15.5682C83.9314 14.6573 84.1757 13.9552 84.6642 13.4619C85.089 13.0324 85.6294 12.8176 86.2855 12.8176C87.1635 12.8176 87.8054 13.1056 88.2113 13.6814C88.4355 14.0047 88.5559 14.3292 88.5724 14.6549H87.4821C87.4113 14.4047 87.3204 14.2159 87.2095 14.0885C87.0112 13.8619 86.7174 13.7487 86.328 13.7487C85.9315 13.7487 85.6188 13.9091 85.3899 14.2301C85.161 14.5487 85.0465 15.0007 85.0465 15.5859C85.0465 16.1712 85.1669 16.6102 85.4076 16.9028C85.6507 17.1931 85.9587 17.3383 86.3315 17.3383C86.7139 17.3383 87.0053 17.2132 87.2059 16.963C87.3169 16.8285 87.4089 16.6267 87.4821 16.3577H88.5618C88.4674 16.9264 88.2266 17.389 87.8396 17.7454ZM93.1886 12.9167V13.8407H91.6274V18.1348H90.53V13.8407H88.9618V12.9167H93.1886ZM98.1553 18.2799C97.4095 18.2799 96.8396 18.0769 96.4454 17.671C95.9168 17.1731 95.6525 16.4556 95.6525 15.5187C95.6525 14.5629 95.9168 13.8454 96.4454 13.3663C96.8396 12.9604 97.4095 12.7574 98.1553 12.7574C98.901 12.7574 99.471 12.9604 99.8651 13.3663C100.391 13.8454 100.655 14.5629 100.655 15.5187C100.655 16.4556 100.391 17.1731 99.8651 17.671C99.471 18.0769 98.901 18.2799 98.1553 18.2799ZM99.1854 16.8781C99.4379 16.5594 99.5642 16.1063 99.5642 15.5187C99.5642 14.9334 99.4368 14.4814 99.1819 14.1628C98.9294 13.8419 98.5872 13.6814 98.1553 13.6814C97.7234 13.6814 97.3788 13.8407 97.1216 14.1593C96.8643 14.4779 96.7357 14.931 96.7357 15.5187C96.7357 16.1063 96.8643 16.5594 97.1216 16.8781C97.3788 17.1967 97.7234 17.356 98.1553 17.356C98.5872 17.356 98.9305 17.1967 99.1854 16.8781ZM105.189 13.8407H102.573V15.0408H104.864V15.947H102.573V18.1348H101.49V12.9238H105.189V13.8407ZM111.731 12.9167V13.8407H110.17V18.1348H109.073V13.8407H107.505V12.9167H111.731ZM115.484 18.1348V15.8054H113.445V18.1348H112.365V12.9167H113.445V14.9062H115.484V12.9167H116.567V18.1348H115.484ZM121.243 15.855H118.709V17.1967H121.597V18.1348H117.643V12.9167H121.47V13.8407H118.709V14.9487H121.243V15.855ZM129.541 12.9167H130.649L129.18 18.1348H128.139L127.509 15.0833L127.325 14.0743L127.141 15.0833L126.511 18.1348H125.499L124.019 12.9167H125.176L125.867 15.9045L126.015 16.7365L126.168 15.9222L126.755 12.9167H127.906L128.525 15.9045L128.685 16.7365L128.844 15.9364L129.541 12.9167ZM134.943 15.855H132.409V17.1967H135.297V18.1348H131.343V12.9167H135.17V13.8407H132.409V14.9487H134.943V15.855ZM139.779 15.855H137.244V17.1967H140.133V18.1348H136.179V12.9167H140.006V13.8407H137.244V14.9487H139.779V15.855ZM145.606 18.1348H144.204L142.593 15.855L142.073 16.3895V18.1348H141V12.9167H142.073V15.0656L144.087 12.9167H145.496L143.358 15.0656L145.606 18.1348Z" fill="#FF6154"/>
<path d="M56.9025 25.1883H51.0064V27.893H56.1685V29.9355H51.0064V34.8662H48.565V23.1218H56.9025V25.1883ZM60.7083 26.1696V34.8662H58.4025V26.1696H60.7083ZM60.7083 23.0341V25.1324H58.4025V23.0341H60.7083ZM67.0113 27.8531C66.24 27.8531 65.7108 28.1802 65.4236 28.8345C65.2746 29.1802 65.2002 29.6217 65.2002 30.1589V34.8662H62.9343V26.1856H65.1284V27.4542C65.4209 27.0074 65.6975 26.6856 65.9581 26.4888C66.4262 26.1377 67.0193 25.9622 67.7373 25.9622C68.6362 25.9622 69.3703 26.1989 69.9394 26.6723C70.5139 27.1403 70.8011 27.9196 70.8011 29.01V34.8662H68.4714V29.5765C68.4714 29.119 68.4102 28.768 68.2879 28.5233C68.0645 28.0765 67.6389 27.8531 67.0113 27.8531ZM76.8887 33.2466V34.946L75.8116 34.9859C74.7372 35.0231 74.0031 34.837 73.6095 34.4274C73.3542 34.1668 73.2266 33.7652 73.2266 33.2226V27.8691H72.0138V26.2494H73.2266V23.8239H75.4765V26.2494H76.8887V27.8691H75.4765V32.4647C75.4765 32.8211 75.5217 33.0444 75.6121 33.1349C75.7026 33.22 75.9791 33.2625 76.4419 33.2625C76.511 33.2625 76.5828 33.2625 76.6573 33.2625C76.7371 33.2572 76.8142 33.2519 76.8887 33.2466ZM85.7927 32.3131C85.7342 32.829 85.4656 33.353 84.9869 33.8849C84.2422 34.7306 83.1997 35.1534 81.8593 35.1534C80.753 35.1534 79.7769 34.7971 78.9312 34.0843C78.0855 33.3716 77.6626 32.212 77.6626 30.6057C77.6626 29.1004 78.0429 27.9462 78.8035 27.143C79.5695 26.3398 80.5615 25.9383 81.7795 25.9383C82.5029 25.9383 83.1545 26.0739 83.7343 26.3452C84.314 26.6164 84.7927 27.0446 85.1704 27.6297C85.5108 28.1456 85.7315 28.744 85.8326 29.4249C85.8911 29.8238 85.9151 30.3982 85.9044 31.1482H79.9524C79.9844 32.0205 80.2583 32.6322 80.7742 32.9833C81.088 33.2014 81.4657 33.3104 81.9072 33.3104C82.3753 33.3104 82.7556 33.1774 83.0481 32.9115C83.2077 32.7679 83.3486 32.5684 83.471 32.3131H85.7927ZM83.5428 29.6483C83.5055 29.0472 83.322 28.5924 82.9923 28.2839C82.6678 27.9701 82.2636 27.8132 81.7795 27.8132C81.2529 27.8132 80.8434 27.9781 80.5508 28.3079C80.2636 28.6376 80.0828 29.0844 80.0083 29.6483H83.5428ZM94.968 29.2892H92.6383C92.5957 28.9648 92.4867 28.6722 92.3112 28.4116C92.0558 28.0605 91.6596 27.885 91.1224 27.885C90.3564 27.885 89.8325 28.2653 89.5506 29.0259C89.4017 29.4302 89.3272 29.9674 89.3272 30.6376C89.3272 31.2759 89.4017 31.7892 89.5506 32.1775C89.8219 32.9008 90.3325 33.2625 91.0825 33.2625C91.6144 33.2625 91.992 33.1189 92.2154 32.8317C92.4388 32.5445 92.5745 32.1721 92.6223 31.7147H94.9441C94.8909 32.4062 94.6409 33.0604 94.1941 33.6774C93.4813 34.6721 92.4255 35.1694 91.0266 35.1694C89.6277 35.1694 88.5985 34.7545 87.9389 33.9247C87.2794 33.095 86.9496 32.0179 86.9496 30.6934C86.9496 29.1988 87.314 28.0366 88.0427 27.2068C88.7714 26.3771 89.7767 25.9622 91.0585 25.9622C92.1489 25.9622 93.0399 26.2069 93.7313 26.6962C94.4281 27.1856 94.8404 28.0499 94.968 29.2892ZM104.399 29.76V34.8662H102.077V29.5765C102.077 29.1084 101.997 28.7307 101.838 28.4435C101.63 28.0393 101.236 27.8371 100.657 27.8371C100.056 27.8371 99.5982 28.0393 99.2844 28.4435C98.9759 28.8424 98.8216 29.4142 98.8216 30.1589V34.8662H96.5557V23.1458H98.8216V27.3026C99.1514 26.7973 99.5317 26.4462 99.9626 26.2494C100.399 26.0473 100.856 25.9462 101.335 25.9462C101.872 25.9462 102.359 26.0393 102.795 26.2255C103.236 26.4116 103.598 26.6962 103.88 27.0792C104.119 27.4036 104.266 27.7387 104.319 28.0845C104.372 28.4249 104.399 28.9834 104.399 29.76Z" fill="#FF6154"/>
<rect x="1" y="1" width="171" height="45" rx="12" stroke="#FF6154" stroke-width="0.583475"/>
</svg>
