<svg width="28" height="24" viewBox="0 0 28 24" fill="none" xmlns="http://www.w3.org/2000/svg">
<rect width="28" height="24" rx="6" fill="url(#paint0_linear_6561_62087)"/>
<path d="M12.5744 13.6061L11.9945 14.2593C11.5478 14.7052 10.979 15.0087 10.3599 15.1314C9.74082 15.2541 9.09924 15.1905 8.51625 14.9487C7.93325 14.707 7.43501 14.2978 7.08449 13.7729C6.73396 13.2481 6.54688 12.6311 6.54688 12C6.54688 11.3688 6.73396 10.7518 7.08449 10.227C7.43501 9.70212 7.93325 9.29295 8.51625 9.05116C9.09924 8.80938 9.74082 8.74583 10.3599 8.86854C10.979 8.99126 11.5478 9.29474 11.9945 9.74063L16.0064 14.2593C16.453 14.7052 17.0219 15.0087 17.641 15.1314C18.2601 15.2541 18.9016 15.1905 19.4846 14.9487C20.0676 14.707 20.5659 14.2978 20.9164 13.7729C21.2669 13.2481 21.454 12.6311 21.454 12C21.454 11.3688 21.2669 10.7518 20.9164 10.227C20.5659 9.70212 20.0676 9.29295 19.4846 9.05116C18.9016 8.80938 18.2601 8.74583 17.641 8.86854C17.0219 8.99126 16.453 9.29474 16.0064 9.74063L15.4265 10.3938" stroke="white" stroke-width="2.5" stroke-linejoin="round"/>
<defs>
<linearGradient id="paint0_linear_6561_62087" x1="28.0125" y1="0" x2="28.0125" y2="24" gradientUnits="userSpaceOnUse">
<stop stop-color="#BE5BF3"/>
<stop offset="1" stop-color="#812FAC"/>
</linearGradient>
</defs>
</svg>
